<?xml version="1.0" standalone="no"?>
<!DOCTYPE svg PUBLIC "-//W3C//DTD SVG 20010904//EN" "http://www.w3.org/TR/2001/REC-SVG-20010904/DTD/svg10.dtd">
<svg width="30cm" height="30cm" viewBox="0 0 250 250" xmlns="http://www.w3.org/2000/svg" xmlns:xlink="http://www.w3.org/1999/xlink">
   <desc>Goban</desc>
<defs>
      <path id="tour" stroke-width="1" fill="none" stroke ="black" d="M 25, 25 H 145 V 145 H 25 Z"/>
      <path id="lignev" stroke-width="1" d="M 35,25 v 120 M 45,25 v 120 M 55,25 v 120 M 65,25 v 120 M 75,25 v 120 M 85,25 v 120 M 95,25 v 120 M 105,25 v 120 M 115,25 v 120 M 125,25 v 120 M 135,25 v 120 M 145,25 v 120 "  stroke="black"/>
      <circle id="grosP" cx="55" cy="55" r="1.5"></circle>
	  
      <circle id="PBlanc" cx="55" cy="55" r="5" fill="#EEEEEE"></circle>
      <circle id="PNoir" cx="55" cy="55" r="5" fill="#363636"></circle>
	  
	  <circle id="OBlanc" cx="55" cy="55" r="5" fill="#EEEEEE" fill-opacity="0.6"></circle>
      <circle id="ONoir" cx="55" cy="55" r="5" fill="#363636" fill-opacity="0.6"></circle>
</defs>
   <g id="plateau">
      <rect x="0" y="0" width="170" height="170" fill="#b4916c"></rect>
   </g>   
   <g id="grille">
      <use xlink:href="#tour"/>
      <use xlink:href="#lignev"/>
       
      <text x="24" y="5em" font-size="4" > A </text>
      <text x="34" y="5em" font-size="4" > B </text>
      <text x="44" y="5em" font-size="4" > C </text>
      <text x="54" y="5em" font-size="4" > D </text>
      <text x="64" y="5em" font-size="4" > E </text>
      <text x="74" y="5em" font-size="4" > F </text>
      <text x="84" y="5em" font-size="4" > G </text>
      <text x="94" y="5em" font-size="4" > H </text>
      <text x="104" y="5em" font-size="4" > I </text>
      <text x="114" y="5em" font-size="4" > J </text>
      <text x="124" y="5em" font-size="4" > K </text>
      <text x="134" y="5em" font-size="4" > L </text>
      <text x="144" y="5em" font-size="4" > M </text>

      
      <text x="4em" y="26" font-size="4" > 1 </text>
      <text x="4em" y="36" font-size="4" > 2 </text>
      <text x="4em" y="46" font-size="4" > 3 </text>
      <text x="4em" y="56" font-size="4" > 4 </text>
      <text x="4em" y="66" font-size="4" > 5 </text>
      <text x="4em" y="76" font-size="4" > 6 </text>
      <text x="4em" y="86" font-size="4" > 7 </text>
      <text x="4em" y="96" font-size="4" > 8 </text>
      <text x="4em" y="106" font-size="4" > 9 </text>
      <text x="4em" y="116" font-size="4" > 10 </text>
      <text x="4em" y="126" font-size="4" > 11 </text>
      <text x="4em" y="136" font-size="4" > 12 </text>
      <text x="4em" y="146" font-size="4" > 13 </text>

  
      <use transform="translate(170,0) rotate(90)" xlink:href="#lignev"/>
 
   </g>
   <g id="pointsPlateau">
      <use xlink:href="#grosP"/>
      <use transform="translate(0,30)" xlink:href="#grosP"/>
      <use transform="translate(0,60)" xlink:href="#grosP"/>
      <use transform="translate(30,0)" xlink:href="#grosP"/>
      <use transform="translate(30,30)" xlink:href="#grosP"/>
      <use transform="translate(30,60)" xlink:href="#grosP"/>
      <use transform="translate(60,0)" xlink:href="#grosP"/>
      <use transform="translate(60,30)" xlink:href="#grosP"/>
      <use transform="translate(60,60)" xlink:href="#grosP"/>
   </g>   
   <g id="placePions">
      <!--apparition pierre si curseur sur le point-->   
   </g>   
</svg>   	
